<svg xmlns="http://www.w3.org/2000/svg" width="138" height="34" viewBox="0 0 138 34">
    <path fill="#FFF" fill-rule="nonzero" d="M42.618 23.47l5.695-15.197a3.688 3.688 0 0 1 1.196-1.675 2.881 2.881 0 0 1 1.837-.64 2.789 2.789 0 0 1 1.868.64c.546.445.95 1.038 1.163 1.706L59.922 23.5c.133.33.206.68.215 1.036 0 .335-.095.663-.277.944a1.775 1.775 0 0 1-.703.639 2.23 2.23 0 0 1-.98.242 2.017 2.017 0 0 1-2.084-1.43l-.858-2.619h-7.87l-.857 2.59a1.928 1.928 0 0 1-2.022 1.462 2.043 2.043 0 0 1-1.47-.579 1.85 1.85 0 0 1-.612-1.37c.024-.325.096-.642.214-.945v-.001zm8.667-13.156l-2.664 8.102h5.359l-2.634-8.102h-.06zM61.33 28.283V13.388a2.418 2.418 0 0 1 .551-1.613 1.807 1.807 0 0 1 1.47-.61 1.956 1.956 0 0 1 2.052 1.675 3.546 3.546 0 0 1 1.623-1.37 5.14 5.14 0 0 1 2.236-.456 5.829 5.829 0 0 1 3.583 1.126 6.886 6.886 0 0 1 2.232 2.953 9.905 9.905 0 0 1 .765 3.868 8.292 8.292 0 0 1-.826 3.656 7.143 7.143 0 0 1-2.387 2.832 5.892 5.892 0 0 1-3.49 1.069 5.421 5.421 0 0 1-1.961-.367 5.778 5.778 0 0 1-1.776-1.036v3.137c0 .401-.094.798-.275 1.157-.16.33-.416.608-.735.793a2.052 2.052 0 0 1-1.042.274 1.9 1.9 0 0 1-1.47-.61 2.273 2.273 0 0 1-.55-1.583zm4.073-9.625a5.218 5.218 0 0 0 .827 2.924 2.797 2.797 0 0 0 3.859.853c.075-.06.158-.11.246-.15a3.903 3.903 0 0 0 1.103-1.523 5.353 5.353 0 0 0 0-3.898 3.659 3.659 0 0 0-1.072-1.553 2.762 2.762 0 0 0-1.745-.609 2.577 2.577 0 0 0-1.744.58 3.388 3.388 0 0 0-1.075 1.462 4.588 4.588 0 0 0-.397 1.917l-.002-.003zm13.169 5.451v-9.256h-.92a1.668 1.668 0 0 1-1.285-.487 1.688 1.688 0 0 1-.49-1.278c0-.468.189-.918.52-1.25a1.643 1.643 0 0 1 1.255-.486h.92v-2.41a2.417 2.417 0 0 1 .551-1.615c.368-.418.911-.643 1.47-.608a1.934 1.934 0 0 1 1.776 1.066c.181.359.277.755.277 1.157v2.375h1.164a2.2 2.2 0 0 1 1.407.43c.388.33.594.83.552 1.339a1.59 1.59 0 0 1-.552 1.34c-.401.308-.902.46-1.407.427h-1.164v9.26c0 .403-.096.798-.277 1.156a1.83 1.83 0 0 1-.735.794 2.043 2.043 0 0 1-1.042.275 1.906 1.906 0 0 1-1.469-.61 2.303 2.303 0 0 1-.551-1.615v-.004zm14.087-13.126a7.012 7.012 0 0 1 2.939.64 6.864 6.864 0 0 1 2.326 1.736 7.986 7.986 0 0 1 1.502 2.497 7.48 7.48 0 0 1 .52 2.953 8.911 8.911 0 0 1-.52 2.986 7.762 7.762 0 0 1-1.467 2.468 7.113 7.113 0 0 1-2.327 1.675 6.75 6.75 0 0 1-2.971.608 6.93 6.93 0 0 1-3.798-1.035 7.51 7.51 0 0 1-2.604-2.832 8.454 8.454 0 0 1-.917-3.868 8.69 8.69 0 0 1 .52-2.924 8.505 8.505 0 0 1 1.5-2.528 6.981 6.981 0 0 1 5.3-2.376h-.003zm.002 3.685a2.594 2.594 0 0 0-1.746.61 3.523 3.523 0 0 0-1.104 1.553 5.55 5.55 0 0 0-.365 1.98 5.269 5.269 0 0 0 .365 1.95 3.622 3.622 0 0 0 1.103 1.521 3 3 0 0 0 3.523 0c.49-.404.87-.928 1.1-1.52a5.363 5.363 0 0 0 .001-3.901 3.466 3.466 0 0 0-1.101-1.554 2.764 2.764 0 0 0-1.776-.639h-.002.002zm10.99-9.533a2.42 2.42 0 0 1 1.135.305c.338.202.62.485.824.822.207.317.314.688.306 1.065a2.405 2.405 0 0 1-.673 1.646 2.187 2.187 0 0 1-3.215-.03 2.309 2.309 0 0 1-.702-1.614 1.947 1.947 0 0 1 .703-1.521 2.315 2.315 0 0 1 1.626-.672l-.004-.001zm-2.02 18.974V13.388a2.41 2.41 0 0 1 .551-1.613 1.798 1.798 0 0 1 1.468-.609 1.931 1.931 0 0 1 1.776 1.066c.182.36.277.756.277 1.157V24.11c0 .403-.095.799-.277 1.157a1.83 1.83 0 0 1-.736.793 2.054 2.054 0 0 1-1.041.276 1.909 1.909 0 0 1-1.47-.61 2.17 2.17 0 0 1-.552-1.614l.002-.002.003-.001zm20.242-17.207V24.11c0 .402-.095.798-.277 1.157-.158.33-.414.606-.731.793a2.066 2.066 0 0 1-1.042.274 1.889 1.889 0 0 1-2.022-1.675 3.854 3.854 0 0 1-1.592 1.37 5.267 5.267 0 0 1-2.145.489 5.905 5.905 0 0 1-3.49-1.067 7.375 7.375 0 0 1-2.39-2.832 8.388 8.388 0 0 1-.827-3.655 10.322 10.322 0 0 1 .735-3.867 6.87 6.87 0 0 1 2.236-2.956 5.828 5.828 0 0 1 3.585-1.126c.463.006.925.055 1.378.152.457.093.9.246 1.316.457.432.207.835.473 1.193.793V6.93a2.41 2.41 0 0 1 .552-1.613 1.808 1.808 0 0 1 1.47-.609c.375 0 .743.094 1.073.274.312.194.565.468.735.793.16.355.244.738.244 1.126h-.001zm-4.074 11.757a4.786 4.786 0 0 0-.826-2.803 2.793 2.793 0 0 0-2.36-1.188 2.683 2.683 0 0 0-1.715.61c-.488.415-.858.95-1.071 1.553a5.343 5.343 0 0 0-.368 1.95c-.006.485.066.97.215 1.43.127.478.334.93.611 1.34.257.388.603.711 1.008.943.406.244.876.361 1.35.335a2.68 2.68 0 0 0 1.775-.61 3.762 3.762 0 0 0 1.072-1.584 7.202 7.202 0 0 0 .306-1.981v.002l.003.003zm18.345 1.461h-8.666a3.004 3.004 0 0 0 1.257 2.163 4.292 4.292 0 0 0 2.573.732 4.42 4.42 0 0 0 1.562-.276 16.687 16.687 0 0 0 1.622-.822 3.455 3.455 0 0 1 1.41-.517c.284.003.561.088.796.245.251.174.469.39.642.64.156.247.24.532.244.822-.03.474-.237.917-.578 1.248a5.593 5.593 0 0 1-1.562 1.096 11.17 11.17 0 0 1-2.205.793c-.753.177-1.523.276-2.297.303a7.98 7.98 0 0 1-3.981-1.004 6.72 6.72 0 0 1-2.693-2.772 8.164 8.164 0 0 1-.95-3.988 8.327 8.327 0 0 1 2.083-5.455 7.064 7.064 0 0 1 8.207-1.702 7.171 7.171 0 0 1 2.327 1.706 8.015 8.015 0 0 1 1.502 2.375c.336.824.52 1.7.552 2.59a1.63 1.63 0 0 1-.471 1.36 1.659 1.659 0 0 1-1.37.467v-.003h-.004zm-8.756-2.708h6.461a3.648 3.648 0 0 0-1.01-2.224 3.03 3.03 0 0 0-2.236-.853 2.894 2.894 0 0 0-2.175.853 3.841 3.841 0 0 0-1.041 2.224h.001zM27.21 1.112A45.918 45.918 0 0 0 17.24 0a42.83 42.83 0 0 0-9.857 1.142c-3.146.73-5.296 2.457-6.089 5.616A41.416 41.416 0 0 0 0 16.998 42.827 42.827 0 0 0 1.177 27.06a7.382 7.382 0 0 0 5.941 5.82 44.47 44.47 0 0 0 19.826 0c3.147-.732 5.296-2.457 6.09-5.647a41.4 41.4 0 0 0 1.293-10.239 42.83 42.83 0 0 0-1.176-10.064 7.382 7.382 0 0 0-5.94-5.818zM8.677 20.099l-.266-.264a2.94 2.94 0 0 1-.675-1.638l-.147-8.425c-.03-.643.412-.878.942-.495l8.06 5.791-7.53 5.353-.384-.322zm18.092-1.843a2.829 2.829 0 0 1-.941 1.902l-7.65 6.027a1.55 1.55 0 0 1-1.853 0l-5.56-4.447-1.057-.819.004-.004 7.556-5.38 3.705-2.633 5.207-3.686c.44-.176.736.058.736.615l-.147 8.426v-.001z"/>
</svg>
